<svg width="52" height="52" viewBox="0 0 52 52" fill="none" xmlns="http://www.w3.org/2000/svg">
<path d="M8.44509 49.7399L42.9883 15.1967L42.9883 45.3795C42.9883 47.7917 44.9675 49.7709 47.3797 49.7709C49.7918 49.7709 51.7401 47.8226 51.7401 45.4104L51.7401 4.65128C51.7401 2.23913 49.7918 0.290858 47.3797 0.290858L6.62051 0.229007C4.20836 0.229007 2.26009 2.17728 2.26009 4.58943C2.26009 7.00158 4.20836 8.94986 6.62051 8.94986L36.8033 9.01171L2.26009 43.5549C0.559212 45.2558 0.559212 48.0391 2.26009 49.7399C3.96096 51.4408 6.74421 51.4408 8.44509 49.7399Z" fill="url(#paint0_linear_224_616)"/>
<defs>
<linearGradient id="paint0_linear_224_616" x1="73.9288" y1="25.0309" x2="9.59577" y2="70.1745" gradientUnits="userSpaceOnUse">
<stop stop-color="#00796D"/>
<stop offset="1" stop-color="#38C682"/>
</linearGradient>
</defs>
</svg>
