<svg width="1280" height="334" viewBox="0 0 1280 334" fill="none" xmlns="http://www.w3.org/2000/svg">
<g filter="url(#filter0_b_242_1411)">
<path fill-rule="evenodd" clip-rule="evenodd" d="M1055 18.3353C1055 8.20899 1046.79 0 1036.66 0H243.335C233.209 0 225 8.20899 225 18.3353V18.3353C225 28.4616 216.791 36.6706 206.665 36.6706H20C8.95431 36.6706 0 45.6249 0 56.6706V314C0 325.046 8.95431 334 20 334H1260C1271.05 334 1280 325.046 1280 314V56.6706C1280 45.6249 1271.05 36.6706 1260 36.6706H1073.34C1063.21 36.6706 1055 28.4616 1055 18.3353V18.3353Z" fill="url(#paint0_linear_242_1411)" fill-opacity="0.8"/>
</g>
<path opacity="0.1" d="M1365 274C1365 353.529 1300.53 418 1221 418C1141.47 418 1077 353.529 1077 274C1077 194.471 1141.47 130 1221 130C1300.53 130 1365 194.471 1365 274ZM1144.47 274C1144.47 316.265 1178.74 350.527 1221 350.527C1263.26 350.527 1297.53 316.265 1297.53 274C1297.53 231.735 1263.26 197.473 1221 197.473C1178.74 197.473 1144.47 231.735 1144.47 274Z" fill="white"/>
<path opacity="0.2" d="M274 50C274 -50.5158 192.516 -132 92 -132C-8.51582 -132 -90 -50.5158 -90 50C-90 150.516 -8.51582 232 92 232C192.516 232 274 150.516 274 50ZM-4.72192 50C-4.72192 -3.41805 38.582 -46.7219 92 -46.7219C145.418 -46.7219 188.722 -3.41805 188.722 50C188.722 103.418 145.418 146.722 92 146.722C38.582 146.722 -4.72192 103.418 -4.72192 50Z" fill="url(#paint1_linear_242_1411)"/>
<defs>
<filter id="filter0_b_242_1411" x="-100" y="-100" width="1480" height="534" filterUnits="userSpaceOnUse" color-interpolation-filters="sRGB">
<feFlood flood-opacity="0" result="BackgroundImageFix"/>
<feGaussianBlur in="BackgroundImageFix" stdDeviation="50"/>
<feComposite in2="SourceAlpha" operator="in" result="effect1_backgroundBlur_242_1411"/>
<feBlend mode="normal" in="SourceGraphic" in2="effect1_backgroundBlur_242_1411" result="shape"/>
</filter>
<linearGradient id="paint0_linear_242_1411" x1="1282.46" y1="314.914" x2="199.393" y2="-333.205" gradientUnits="userSpaceOnUse">
<stop stop-color="#00796D"/>
<stop offset="1" stop-color="#38C682"/>
</linearGradient>
<linearGradient id="paint1_linear_242_1411" x1="92" y1="232" x2="92" y2="-132" gradientUnits="userSpaceOnUse">
<stop stop-color="white"/>
<stop offset="1" stop-color="white" stop-opacity="0"/>
</linearGradient>
</defs>
</svg>
