<svg width="327" height="347" viewBox="0 0 327 347" fill="none" xmlns="http://www.w3.org/2000/svg">
<g opacity="0.8" filter="url(#filter0_b_258_1411)">
<path fill-rule="evenodd" clip-rule="evenodd" d="M288 16C288 7.16344 280.837 0 272 0H55C46.1634 0 39 7.16344 39 16V21C39 29.8366 31.8366 37 23 37H16C7.16344 37 0 44.1634 0 53V331C0 339.837 7.16345 347 16 347H311C319.837 347 327 339.837 327 331V53C327 44.1634 319.837 37 311 37H304C295.163 37 288 29.8366 288 21V16Z" fill="url(#paint0_linear_258_1411)"/>
</g>
<path opacity="0.15" d="M274 50C274 -50.5158 192.516 -132 92 -132C-8.51582 -132 -90 -50.5158 -90 50C-90 150.516 -8.51582 232 92 232C192.516 232 274 150.516 274 50ZM-4.72192 50C-4.72192 -3.41805 38.582 -46.7219 92 -46.7219C145.418 -46.7219 188.722 -3.41805 188.722 50C188.722 103.418 145.418 146.722 92 146.722C38.582 146.722 -4.72192 103.418 -4.72192 50Z" fill="url(#paint1_linear_258_1411)"/>
<defs>
<filter id="filter0_b_258_1411" x="-100" y="-100" width="527" height="547" filterUnits="userSpaceOnUse" color-interpolation-filters="sRGB">
<feFlood flood-opacity="0" result="BackgroundImageFix"/>
<feGaussianBlur in="BackgroundImageFix" stdDeviation="50"/>
<feComposite in2="SourceAlpha" operator="in" result="effect1_backgroundBlur_258_1411"/>
<feBlend mode="normal" in="SourceGraphic" in2="effect1_backgroundBlur_258_1411" result="shape"/>
</filter>
<linearGradient id="paint0_linear_258_1411" x1="327" y1="347" x2="-46.1861" y2="286.93" gradientUnits="userSpaceOnUse">
<stop stop-color="#00796D"/>
<stop offset="1" stop-color="#38C682"/>
</linearGradient>
<linearGradient id="paint1_linear_258_1411" x1="92" y1="232" x2="92" y2="-132" gradientUnits="userSpaceOnUse">
<stop stop-color="white"/>
<stop offset="1" stop-color="white" stop-opacity="0"/>
</linearGradient>
</defs>
</svg>
