<svg width="44" height="44" viewBox="0 0 44 44" fill="none" xmlns="http://www.w3.org/2000/svg">
<path d="M15.4999 0.333374C9.82325 0.333374 5.20825 4.94837 5.20825 10.625C5.20825 16.1934 9.56325 20.7 15.2399 20.895C15.4132 20.8734 15.5866 20.8734 15.7166 20.895C15.7599 20.895 15.7816 20.895 15.8249 20.895C15.8466 20.895 15.8466 20.895 15.8682 20.895C21.4149 20.7 25.7699 16.1934 25.7916 10.625C25.7916 4.94837 21.1766 0.333374 15.4999 0.333374Z" fill="url(#paint0_linear_233_787)"/>
<path d="M26.5066 26.6584C20.4616 22.6284 10.6032 22.6284 4.51492 26.6584C1.76325 28.5 0.246582 30.9917 0.246582 33.6567C0.246582 36.3217 1.76325 38.7917 4.49325 40.6117C7.52658 42.6484 11.5132 43.6667 15.4999 43.6667C19.4866 43.6667 23.4732 42.6484 26.5066 40.6117C29.2366 38.77 30.7533 36.3 30.7533 33.6134C30.7316 30.9484 29.2366 28.4784 26.5066 26.6584Z" fill="url(#paint1_linear_233_787)"/>
<path d="M39.3116 11.9034C39.6582 16.1067 36.6683 19.79 32.5299 20.2884C32.5083 20.2884 32.5083 20.2884 32.4866 20.2884H32.4216C32.2916 20.2884 32.1616 20.2884 32.0532 20.3317C29.9516 20.44 28.0232 19.7684 26.5716 18.5334C28.8032 16.54 30.0816 13.55 29.8216 10.3C29.6699 8.54504 29.0632 6.94171 28.1532 5.57671C28.9766 5.16504 29.9299 4.90504 30.9049 4.81837C35.1516 4.45004 38.9432 7.61337 39.3116 11.9034Z" fill="url(#paint2_linear_233_787)"/>
<path d="M43.6449 31.945C43.4716 34.0467 42.1283 35.8667 39.8749 37.1017C37.7083 38.2934 34.9782 38.8567 32.2699 38.7917C33.8299 37.3834 34.7399 35.6284 34.9132 33.765C35.1299 31.0784 33.8516 28.5 31.2949 26.4417C29.8433 25.2934 28.1532 24.3834 26.3116 23.7117C31.0999 22.325 37.1232 23.2567 40.8282 26.2467C42.8216 27.85 43.8399 29.865 43.6449 31.945Z" fill="url(#paint3_linear_233_787)"/>
<defs>
<linearGradient id="paint0_linear_233_787" x1="43.6685" y1="43.6667" x2="-5.7234" y2="35.2127" gradientUnits="userSpaceOnUse">
<stop stop-color="#00796D"/>
<stop offset="1" stop-color="#38C682"/>
</linearGradient>
<linearGradient id="paint1_linear_233_787" x1="43.6685" y1="43.6667" x2="-5.7234" y2="35.2127" gradientUnits="userSpaceOnUse">
<stop stop-color="#00796D"/>
<stop offset="1" stop-color="#38C682"/>
</linearGradient>
<linearGradient id="paint2_linear_233_787" x1="43.6685" y1="43.6667" x2="-5.7234" y2="35.2127" gradientUnits="userSpaceOnUse">
<stop stop-color="#00796D"/>
<stop offset="1" stop-color="#38C682"/>
</linearGradient>
<linearGradient id="paint3_linear_233_787" x1="43.6685" y1="43.6667" x2="-5.7234" y2="35.2127" gradientUnits="userSpaceOnUse">
<stop stop-color="#00796D"/>
<stop offset="1" stop-color="#38C682"/>
</linearGradient>
</defs>
</svg>
