<svg width="44" height="44" viewBox="0 0 44 44" fill="none" xmlns="http://www.w3.org/2000/svg">
<path d="M31.0783 0.333374H12.9216C5.03492 0.333374 0.333252 5.03504 0.333252 12.9217V31.0567C0.333252 38.965 5.03492 43.6667 12.9216 43.6667H31.0566C38.9433 43.6667 43.6449 38.965 43.6449 31.0784V12.9217C43.6666 5.03504 38.9649 0.333374 31.0783 0.333374ZM20.9816 25.315L12.9216 33.375H17.6666C18.5549 33.375 19.2916 34.1117 19.2916 35C19.2916 35.8884 18.5549 36.625 17.6666 36.625H8.99992C8.78325 36.625 8.56659 36.5817 8.37159 36.495C7.98159 36.3217 7.65659 36.0184 7.48325 35.6067C7.41825 35.4117 7.37492 35.2167 7.37492 35V26.3334C7.37492 25.445 8.11159 24.7084 8.99992 24.7084C9.88825 24.7084 10.6249 25.445 10.6249 26.3334V31.0784L18.6849 23.0184C19.3133 22.39 20.3533 22.39 20.9816 23.0184C21.6099 23.6467 21.6099 24.6867 20.9816 25.315ZM36.6249 17.6667C36.6249 18.555 35.8883 19.2917 34.9999 19.2917C34.1116 19.2917 33.3749 18.555 33.3749 17.6667V12.9217L25.3149 20.9817C24.9899 21.3067 24.5783 21.4584 24.1666 21.4584C23.7549 21.4584 23.3433 21.3067 23.0183 20.9817C22.3899 20.3534 22.3899 19.3134 23.0183 18.685L31.0783 10.625H26.3333C25.4449 10.625 24.7083 9.88837 24.7083 9.00004C24.7083 8.11171 25.4449 7.37504 26.3333 7.37504H34.9999C35.2166 7.37504 35.4116 7.41837 35.6283 7.50504C36.0183 7.67837 36.3433 7.98171 36.5166 8.39337C36.5816 8.58837 36.6249 8.78337 36.6249 9.00004V17.6667Z" fill="url(#paint0_linear_233_1043)"/>
<defs>
<linearGradient id="paint0_linear_233_1043" x1="43.645" y1="43.6667" x2="-5.62869" y2="35.2544" gradientUnits="userSpaceOnUse">
<stop stop-color="#00796D"/>
<stop offset="1" stop-color="#38C682"/>
</linearGradient>
</defs>
</svg>
