<svg width="37" height="25" viewBox="0 0 37 25" fill="none" xmlns="http://www.w3.org/2000/svg">
<g clip-path="url(#clip0_169_1215)">
<path fill-rule="evenodd" clip-rule="evenodd" d="M19.3792 4.90389C19.9446 3.95501 19.5076 3.18579 18.403 3.18579H14.6383C13.5337 3.18579 12.1799 3.95501 11.6145 4.90389L1.16757 22.4358C0.602146 23.3846 1.03921 24.1539 2.14378 24.1539H11.5555C12.6601 24.1539 14.0139 23.3846 14.5793 22.4358L18.0441 16.6213C18.6095 15.6725 18.1724 14.9032 17.0678 14.9032H15.4208C14.3162 14.9032 13.8791 14.134 14.4446 13.1851L19.3792 4.90389Z" fill="url(#paint0_linear_169_1215)"/>
<rect width="12" height="14.8235" rx="1" transform="matrix(1 0 -0.511893 0.859049 24.3274 0.153809)" fill="url(#paint1_linear_169_1215)"/>
<rect width="9.17647" height="9.17647" rx="1" transform="matrix(1 0 -0.511893 0.859049 21.3024 14.7072)" fill="#F5921E"/>
</g>
<defs>
<linearGradient id="paint0_linear_169_1215" x1="13.5555" y1="24.1539" x2="3.06768" y2="16.7585" gradientUnits="userSpaceOnUse">
<stop stop-color="#00796D"/>
<stop offset="1" stop-color="#38C682"/>
</linearGradient>
<linearGradient id="paint1_linear_169_1215" x1="12" y1="14.8235" x2="-1.78614" y2="12.9172" gradientUnits="userSpaceOnUse">
<stop stop-color="#00796D"/>
<stop offset="1" stop-color="#38C682"/>
</linearGradient>
<clipPath id="clip0_169_1215">
<rect width="36.7059" height="24" fill="white" transform="translate(0 0.153809)"/>
</clipPath>
</defs>
</svg>
