<svg width="1440" height="1303" viewBox="0 0 1440 1303" fill="none" xmlns="http://www.w3.org/2000/svg">
<path opacity="0.2" d="M1252.27 1453.99C1366.74 1523.83 1516.15 1487.65 1585.99 1373.17C1655.83 1258.7 1619.65 1109.29 1505.17 1039.45C1390.7 969.615 1241.29 1005.8 1171.45 1120.27C1101.61 1234.74 1137.8 1384.15 1252.27 1453.99ZM1445.92 1136.57C1506.76 1173.69 1525.99 1253.09 1488.87 1313.92C1451.76 1374.76 1372.36 1393.99 1311.52 1356.87C1250.69 1319.76 1231.46 1240.36 1268.57 1179.52C1305.69 1118.69 1385.09 1099.46 1445.92 1136.57Z" fill="url(#paint0_linear_313_1413)"/>
<path opacity="0.2" d="M-18.6316 261.525C67.1759 313.875 179.175 286.752 231.524 200.945C283.874 115.137 256.751 3.13839 170.944 -49.2114C85.1364 -101.561 -26.8622 -74.4385 -79.2121 11.369C-131.562 97.1765 -104.439 209.175 -18.6316 261.525ZM126.53 23.588C172.132 51.4088 186.546 110.929 158.725 156.531C130.904 202.132 71.3837 216.546 25.7822 188.726C-19.8192 160.905 -34.2334 101.384 -6.41261 55.7828C21.4081 10.1814 80.9286 -4.23274 126.53 23.588Z" fill="url(#paint1_linear_313_1413)"/>
<path d="M0.489629 1144L0.489579 0.000812242M180.428 1144L180.428 0.000812242M360.367 1144L360.367 0.000812242M540.306 1144L540.306 0.000812242M720.245 1144L720.245 0.000812242M900.184 1144L900.184 0.000812242M1080.12 1144L1080.12 0.000812242M1260.06 1144L1260.06 0.000812242M1440 1144L1440 0.000812242M0 31.9871H1439.51M0 211.967L1439.51 211.967M0 391.948L1439.51 391.948M0 571.928L1439.51 571.928M0 751.908L1439.51 751.908M0 931.889L1439.51 931.889M0 1111.87L1439.51 1111.87" stroke="url(#paint2_linear_313_1413)" stroke-opacity="0.3"/>
<defs>
<linearGradient id="paint0_linear_313_1413" x1="1712.03" y1="1462.63" x2="1045" y2="1078.42" gradientUnits="userSpaceOnUse">
<stop stop-color="white"/>
<stop offset="1" stop-color="white" stop-opacity="0"/>
</linearGradient>
<linearGradient id="paint1_linear_313_1413" x1="-79.2121" y1="11.369" x2="231.524" y2="200.945" gradientUnits="userSpaceOnUse">
<stop stop-color="white"/>
<stop offset="1" stop-color="white" stop-opacity="0"/>
</linearGradient>
<linearGradient id="paint2_linear_313_1413" x1="612.425" y1="-95.9993" x2="460.527" y2="1084.53" gradientUnits="userSpaceOnUse">
<stop stop-color="white"/>
<stop offset="1" stop-color="white" stop-opacity="0"/>
</linearGradient>
</defs>
</svg>
