<svg width="44" height="44" viewBox="0 0 44 44" fill="none" xmlns="http://www.w3.org/2000/svg">
<path d="M8.43669 30.6667C8.67502 29.605 8.24169 28.0884 7.48335 27.33L2.21835 22.065C0.571687 20.4184 -0.0783133 18.6634 0.398353 17.1467C0.896687 15.63 2.43502 14.59 4.73169 14.2L11.4917 13.0734C12.4667 12.9 13.6584 12.0334 14.1134 11.145L17.84 3.67004C18.9234 1.52504 20.3967 0.333374 22 0.333374C23.6034 0.333374 25.0767 1.52504 26.16 3.67004L29.8867 11.145C30.1684 11.7084 30.7534 12.25 31.3817 12.6184L8.04669 35.9534C7.74335 36.2567 7.22335 35.975 7.31002 35.5417L8.43669 30.6667Z" fill="url(#paint0_linear_233_785)"/>
<path d="M36.5167 27.33C35.7367 28.11 35.3034 29.605 35.5634 30.6667L37.0584 37.1884C37.6867 39.8967 37.2967 41.9334 35.9534 42.9084C35.4117 43.2984 34.7617 43.4934 34.0034 43.4934C32.8984 43.4934 31.5984 43.0817 30.1684 42.2367L23.82 38.4667C22.8234 37.8817 21.1767 37.8817 20.18 38.4667L13.8317 42.2367C11.4267 43.645 9.36835 43.8834 8.04669 42.9084C7.54835 42.54 7.18002 42.0417 6.94169 41.3917L33.2883 15.045C34.285 14.0484 35.6934 13.5934 37.0584 13.8317L39.2467 14.2C41.5433 14.59 43.0817 15.63 43.58 17.1467C44.0567 18.6634 43.4067 20.4184 41.76 22.065L36.5167 27.33Z" fill="url(#paint1_linear_233_785)"/>
<defs>
<linearGradient id="paint0_linear_233_785" x1="43.7325" y1="43.4988" x2="-5.71783" y2="34.9893" gradientUnits="userSpaceOnUse">
<stop stop-color="#00796D"/>
<stop offset="1" stop-color="#38C682"/>
</linearGradient>
<linearGradient id="paint1_linear_233_785" x1="43.7325" y1="43.4988" x2="-5.71783" y2="34.9893" gradientUnits="userSpaceOnUse">
<stop stop-color="#00796D"/>
<stop offset="1" stop-color="#38C682"/>
</linearGradient>
</defs>
</svg>
