<svg width="1440" height="689" viewBox="0 0 1440 689" fill="none" xmlns="http://www.w3.org/2000/svg">
<path d="M1360 40.0008C1360 17.9094 1342.09 0.000793457 1320 0.000793457H120C97.9086 0.000793457 80 17.9094 80 40.0008V144.001C80 166.092 62.0914 184.001 40 184.001H0V689.001H1440V184.001H1400C1377.91 184.001 1360 166.092 1360 144.001V40.0008Z" fill="#0C111F"/>
<path opacity="0.2" d="M1239.27 858.992C1353.74 928.83 1503.15 892.647 1572.99 778.175C1642.83 663.703 1606.65 514.29 1492.17 444.453C1377.7 374.615 1228.29 410.799 1158.45 525.271C1088.61 639.743 1124.8 789.155 1239.27 858.992ZM1432.92 541.571C1493.76 578.686 1512.99 658.089 1475.87 718.924C1438.76 779.759 1359.36 798.988 1298.52 761.874C1237.69 724.76 1218.46 645.356 1255.57 584.521C1292.69 523.686 1372.09 504.457 1432.92 541.571Z" fill="url(#paint0_linear_367_1413)"/>
<path opacity="0.2" d="M-112.632 566.525C-26.8241 618.875 85.1745 591.752 137.524 505.945C189.874 420.137 162.751 308.138 76.9439 255.789C-8.8636 203.439 -120.862 230.562 -173.212 316.369C-225.562 402.176 -198.439 514.175 -112.632 566.525ZM32.5301 328.588C78.1315 356.409 92.5456 415.929 64.7249 461.531C36.9041 507.132 -22.6163 521.546 -68.2178 493.726C-113.819 465.905 -128.233 406.384 -100.413 360.783C-72.5919 315.181 -13.0714 300.767 32.5301 328.588Z" fill="url(#paint1_linear_367_1413)"/>
<defs>
<linearGradient id="paint0_linear_367_1413" x1="1699.03" y1="867.632" x2="1032" y2="483.424" gradientUnits="userSpaceOnUse">
<stop stop-color="white"/>
<stop offset="1" stop-color="white" stop-opacity="0"/>
</linearGradient>
<linearGradient id="paint1_linear_367_1413" x1="-173.212" y1="316.369" x2="137.524" y2="505.945" gradientUnits="userSpaceOnUse">
<stop stop-color="white"/>
<stop offset="1" stop-color="white" stop-opacity="0"/>
</linearGradient>
</defs>
</svg>
