<svg width="44" height="44" viewBox="0 0 44 44" fill="none" xmlns="http://www.w3.org/2000/svg">
<path d="M21.8699 0.788374L16.6483 12.9434H11.4266C10.5599 12.9434 9.71494 13.0084 8.8916 13.1817L11.0583 7.98171L11.1449 7.78671L11.2749 7.44004C11.3399 7.28837 11.3833 7.15837 11.4483 7.05004C13.9616 1.22171 16.7783 -0.598293 21.8699 0.788374Z" fill="url(#paint0_linear_233_783)"/>
<path d="M36.5816 13.5284L36.5383 13.5067C35.2383 13.1384 33.9166 12.9434 32.5733 12.9434H19.0099L23.8849 1.61171L23.9499 1.46004C24.2533 1.56837 24.5783 1.72004 24.9033 1.82837L29.6916 3.84337C32.3566 4.94837 34.2199 6.09671 35.3683 7.48337C35.5633 7.74337 35.7366 7.98171 35.9099 8.26337C36.1049 8.56671 36.2566 8.87004 36.3433 9.19504C36.4299 9.39004 36.4949 9.56337 36.5383 9.75837C36.8633 10.8634 36.8849 12.12 36.5816 13.5284Z" fill="url(#paint1_linear_233_783)"/>
<path d="M23.1266 34.2634H23.6683C24.3183 34.2634 24.8599 33.6784 24.8599 32.9634C24.8599 32.0534 24.5999 31.9234 24.0366 31.7067L23.1266 31.3817V34.2634Z" fill="url(#paint2_linear_233_783)"/>
<path d="M35.6283 16.6267C34.6533 16.345 33.6349 16.1934 32.5733 16.1934H11.4266C9.95327 16.1934 8.5666 16.475 7.2666 17.0384C3.4966 18.6634 0.853271 22.4117 0.853271 26.7667V30.9917C0.853271 31.5117 0.896605 32.01 0.961605 32.53C1.43827 39.42 5.1216 43.1034 12.0116 43.5584C12.5099 43.6234 13.0083 43.6667 13.5499 43.6667H30.4499C38.4666 43.6667 42.6916 39.8534 43.1033 32.27C43.1249 31.8584 43.1466 31.425 43.1466 30.9917V26.7667C43.1466 21.9784 39.9616 17.9484 35.6283 16.6267ZM24.7733 29.5834C25.7699 29.93 27.1133 30.6667 27.1133 32.9634C27.1133 34.935 25.5749 36.5167 23.6683 36.5167H23.1266V36.9934C23.1266 37.6217 22.6283 38.12 21.9999 38.12C21.3716 38.12 20.8733 37.6217 20.8733 36.9934V36.5167H20.6783C18.5983 36.5167 16.8866 34.7617 16.8866 32.595C16.8866 31.9667 17.3849 31.4684 18.0133 31.4684C18.6416 31.4684 19.1399 31.9667 19.1399 32.595C19.1399 33.505 19.8333 34.2634 20.6783 34.2634H20.8733V30.6017L19.2266 30.0167C18.2299 29.67 16.8866 28.9334 16.8866 26.6367C16.8866 24.665 18.4249 23.0834 20.3316 23.0834H20.8733V22.6067C20.8733 21.9784 21.3716 21.48 21.9999 21.48C22.6283 21.48 23.1266 21.9784 23.1266 22.6067V23.0834H23.3216C25.4016 23.0834 27.1133 24.8384 27.1133 27.005C27.1133 27.6334 26.6149 28.1317 25.9866 28.1317C25.3583 28.1317 24.8599 27.6334 24.8599 27.005C24.8599 26.095 24.1666 25.3367 23.3216 25.3367H23.1266V28.9984L24.7733 29.5834Z" fill="url(#paint3_linear_233_783)"/>
<path d="M19.1399 26.6367C19.1399 27.5467 19.3999 27.6767 19.9633 27.8934L20.8733 28.2184V25.3367H20.3316C19.6599 25.3367 19.1399 25.9217 19.1399 26.6367Z" fill="url(#paint4_linear_233_783)"/>
<defs>
<linearGradient id="paint0_linear_233_783" x1="43.1466" y1="43.6667" x2="-5.03111" y2="35.6325" gradientUnits="userSpaceOnUse">
<stop stop-color="#00796D"/>
<stop offset="1" stop-color="#38C682"/>
</linearGradient>
<linearGradient id="paint1_linear_233_783" x1="43.1466" y1="43.6667" x2="-5.03111" y2="35.6325" gradientUnits="userSpaceOnUse">
<stop stop-color="#00796D"/>
<stop offset="1" stop-color="#38C682"/>
</linearGradient>
<linearGradient id="paint2_linear_233_783" x1="43.1466" y1="43.6667" x2="-5.03111" y2="35.6325" gradientUnits="userSpaceOnUse">
<stop stop-color="#00796D"/>
<stop offset="1" stop-color="#38C682"/>
</linearGradient>
<linearGradient id="paint3_linear_233_783" x1="43.1466" y1="43.6667" x2="-5.03111" y2="35.6325" gradientUnits="userSpaceOnUse">
<stop stop-color="#00796D"/>
<stop offset="1" stop-color="#38C682"/>
</linearGradient>
<linearGradient id="paint4_linear_233_783" x1="43.1466" y1="43.6667" x2="-5.03111" y2="35.6325" gradientUnits="userSpaceOnUse">
<stop stop-color="#00796D"/>
<stop offset="1" stop-color="#38C682"/>
</linearGradient>
</defs>
</svg>
